<svg width="790" height="184" viewBox="0 0 790 184" fill="none" xmlns="http://www.w3.org/2000/svg">
<path d="M34.8454 31.551V63.2915C34.8454 67.9025 35.3531 70.6818 36.3687 71.6292C37.4477 72.5136 39.7009 72.9557 43.1283 72.9557H47.2222C56.6793 72.9557 63.9784 70.6186 69.1195 65.9444C74.2607 61.207 76.8312 55.0168 76.8312 47.3738V43.4892C76.8312 35.6567 74.2924 29.4665 69.2147 24.9186C64.2006 20.3076 57.6313 18.0021 49.5071 18.0021H43.6043C39.6057 18.0021 37.1303 18.6653 36.1783 19.9918C35.2897 21.2551 34.8454 25.1081 34.8454 31.551ZM51.9825 8.05355C75.0223 8.05355 89.8427 15.0649 96.4436 29.0875C98.2208 32.8774 99.1094 37.6148 99.1094 43.2997C99.1094 53.9114 94.3174 63.1651 84.7333 71.0608C79.4018 75.4823 76.736 79.1775 76.736 82.1462C76.736 83.0305 79.8778 88.7786 86.1614 99.3903C92.445 109.939 97.0149 117.013 99.871 120.614C102.791 124.214 106.409 126.899 110.725 128.667C115.041 130.373 117.199 131.984 117.199 133.499C117.199 137.984 112.28 140.227 102.442 140.227C95.2694 140.227 89.9062 138.49 86.3518 135.015C83.8764 132.615 78.9257 124.814 71.4997 111.613C64.0736 98.4113 59.8845 91.2104 58.9325 90.0103C55.5685 85.7782 50.4592 83.6622 43.6043 83.6622C40.6847 83.6622 38.6854 84.9887 37.6064 87.6416C36.5274 90.2314 35.9879 96.0742 35.9879 105.17C35.9879 114.266 36.5908 120.298 37.7968 123.267C39.0662 126.235 40.9703 129.078 43.5091 131.794C46.0479 134.447 47.3174 135.995 47.3174 136.437C47.3174 138.584 43.287 139.658 35.2262 139.658L31.9892 139.563L28.8474 139.374C27.4511 139.311 25.293 139.279 22.3734 139.279C7.4578 139.279 0 138.016 0 135.489C0 132.963 1.04727 131.068 3.1418 129.804C8.47333 126.52 11.3295 124.53 11.7103 123.835C13.1702 121.182 13.9001 113.887 13.9001 101.949L14.0905 95.3162L14.1857 88.6838C14.1857 86.4731 14.1857 84.2623 14.1857 82.0515L13.9953 72.1977C13.9953 46.4895 13.3606 31.4562 12.0912 27.0978C10.8852 22.7394 8.66374 19.6128 5.42674 17.7178C2.25321 15.7597 0.666442 14.0542 0.666442 12.6014C0.666442 10.0748 5.74409 8.81153 15.8994 8.81153L19.1364 8.71679C21.3579 8.65362 23.5476 8.62204 25.7056 8.62204L45.318 8.05355H51.9825Z" fill="black"/>
<path d="M136.233 91.1473V94.6529C136.233 105.391 138.328 114.297 142.517 121.372C144.485 124.72 146.992 127.372 150.038 129.331C153.085 131.289 156.163 132.268 159.273 132.268H161.177C166.953 132.268 171.936 129.488 176.125 123.93C180.377 118.308 182.503 110.349 182.503 100.054V93.3265C182.503 83.1569 180.377 74.5348 176.125 67.4604C171.936 60.3227 166.604 56.7539 160.13 56.7539H157.179C151.339 56.7539 146.389 59.8805 142.327 66.1339C138.264 72.3872 136.233 80.725 136.233 91.1473ZM205.448 91.5263V96.2636C205.448 101.254 204.433 106.717 202.402 112.655C198.149 125.035 189.676 133.689 176.982 138.616C171.46 140.763 166.128 141.837 160.987 141.837H157.845C145.722 141.837 135.599 137.795 127.474 129.71C123.793 126.046 120.81 121.214 118.525 115.213C116.24 109.212 115.098 102.833 115.098 96.0742V94.4634C115.098 88.3364 116.177 82.1462 118.335 75.8929C122.524 63.702 130.743 55.2379 142.993 50.5005C148.515 48.3529 153.815 47.2791 158.892 47.2791H163.653C169.302 47.2791 174.855 48.5424 180.314 51.069C190.659 55.8695 197.863 63.5125 201.925 73.9979C204.274 80.1881 205.448 86.0309 205.448 91.5263Z" fill="black"/>
<path d="M233.305 91.1473V94.6529C233.305 105.391 235.4 114.297 239.589 121.372C241.557 124.72 244.064 127.372 247.11 129.331C250.157 131.289 253.235 132.268 256.345 132.268H258.249C264.025 132.268 269.008 129.488 273.197 123.93C277.449 118.308 279.575 110.349 279.575 100.054V93.3265C279.575 83.1569 277.449 74.5348 273.197 67.4604C269.008 60.3227 263.676 56.7539 257.202 56.7539H254.251C248.411 56.7539 243.461 59.8805 239.399 66.1339C235.336 72.3872 233.305 80.725 233.305 91.1473ZM302.52 91.5263V96.2636C302.52 101.254 301.505 106.717 299.474 112.655C295.221 125.035 286.748 133.689 274.054 138.616C268.532 140.763 263.2 141.837 258.059 141.837H254.917C242.794 141.837 232.671 137.795 224.546 129.71C220.865 126.046 217.882 121.214 215.597 115.213C213.312 109.212 212.17 102.833 212.17 96.0742V94.4634C212.17 88.3364 213.249 82.1462 215.407 75.8929C219.596 63.702 227.815 55.2379 240.065 50.5005C245.587 48.3529 250.887 47.2791 255.964 47.2791H260.725C266.374 47.2791 271.927 48.5424 277.386 51.069C287.731 55.8695 294.935 63.5125 298.997 73.9979C301.346 80.1881 302.52 86.0309 302.52 91.5263Z" fill="black"/>
<path d="M344.119 99.7693C340.247 99.7693 338.311 105.328 338.311 116.445C338.311 120.361 339.232 124.183 341.072 127.909L343.643 132.268C344.531 133.847 344.976 134.984 344.976 135.679C344.976 137.953 338.597 139.09 325.839 139.09C313.082 139.09 306.703 138.016 306.703 135.868C306.703 135.3 307.75 133.594 309.845 130.752C312.003 127.846 313.558 124.467 314.51 120.614C315.525 116.698 316.033 107.633 316.033 93.4212L316.128 89.8208C316.255 86.5994 316.319 84.1991 316.319 82.62L316.509 75.4192L316.604 68.1236V53.4377C316.604 35.183 316.255 24.4133 315.557 21.1287C314.922 17.781 313.748 15.2544 312.034 13.5489L309.94 11.9382L307.655 10.517C305.814 9.19053 304.894 7.95881 304.894 6.82183C304.894 5.6217 305.656 4.57947 307.179 3.69516C311.495 1.23172 318.159 0 327.172 0H330.409C334.027 0 336.28 2.55819 337.169 7.67456C337.486 9.56952 337.645 23.7185 337.645 50.1215L337.55 61.0175C337.55 69.6711 337.581 74.2822 337.645 74.8507C338.343 80.8514 339.993 83.8517 342.595 83.8517C345.198 83.8517 349.672 80.4408 356.02 73.6189C362.367 66.7339 365.54 61.8387 365.54 58.9331L365.254 55.5221C365.254 53.3745 366.08 51.8586 367.73 50.9743C369.444 50.0899 372.966 49.6478 378.298 49.6478C390.421 49.6478 396.482 50.9427 396.482 53.5324C396.482 53.5956 390.865 58.1119 379.631 67.0814C368.396 76.0508 362.779 82.4621 362.779 86.3151C362.779 90.1682 370.491 101.064 385.914 119.003C389.278 122.919 392.959 126.299 396.958 129.141C401.02 131.984 403.051 133.878 403.051 134.826C403.051 137.921 398.354 139.469 388.961 139.469H382.011C375.918 139.469 371.538 137.732 368.872 134.257L365.064 125.067C363.477 121.277 360.843 116.792 357.162 111.613C351.513 103.717 347.165 99.7693 344.119 99.7693Z" fill="black"/>
<path d="M468.896 97.4006C473.91 102.138 476.417 108.139 476.417 115.403C476.417 122.604 473.434 128.794 467.468 133.973C461.501 139.09 453.25 141.648 442.714 141.648H440.143C428.148 141.648 419.008 140.163 412.724 137.195C409.233 135.552 407.488 131.889 407.488 126.204V123.835C407.488 116.571 408.852 112.939 411.582 112.939C413.867 112.939 416.564 115.087 419.674 119.382C422.784 123.614 425.387 126.457 427.481 127.909C431.543 130.689 436.304 132.078 441.762 132.078C447.284 132.078 451.346 130.941 453.948 128.667C456.551 126.33 457.852 123.267 457.852 119.477C457.852 115.687 455.63 112.181 451.187 108.96C448.839 107.254 443.349 104.57 434.717 100.906C426.148 97.2427 419.738 93.4212 415.485 89.4418C411.233 85.3992 409.106 79.7144 409.106 72.3872C409.106 65.0601 412.185 59.1226 418.341 54.5747C424.498 49.9636 432.083 47.6581 441.096 47.6581H443.666C455.472 47.6581 463.755 49.0477 468.515 51.827C470.99 53.2798 472.228 57.3223 472.228 63.9547C472.228 70.587 470.641 73.9032 467.468 73.9032C465.69 73.9032 463.247 71.9451 460.137 68.0288C457.09 64.0494 454.297 61.2386 451.759 59.5963C449.22 57.8908 445.697 57.0381 441.191 57.0381C436.748 57.0381 433.225 58.0487 430.623 60.07C428.021 62.0913 426.719 65.0285 426.719 68.8816C426.719 72.6715 429.1 76.0824 433.86 79.1143C435.066 79.9355 440.334 82.3673 449.664 86.4099C458.994 90.4525 465.405 94.116 468.896 97.4006Z" fill="black"/>
<path d="M517.984 18.2863C517.984 21.0656 516.778 23.6553 514.366 26.0556C512.018 28.3927 509.669 29.5613 507.321 29.5613C506.813 29.6876 506.4 29.7508 506.083 29.7508L503.989 29.9403C500.815 29.9403 497.959 28.898 495.42 26.8136C492.945 24.7291 491.707 22.0446 491.707 18.76V17.0546C491.707 13.77 493.008 11.0223 495.61 8.81153C498.276 6.53759 501.323 5.40062 504.75 5.40062H505.226L508.463 5.77961C510.431 5.77961 512.462 6.85342 514.556 9.00103C516.714 11.0855 517.793 13.2015 517.793 15.3491L517.984 16.2019V18.2863ZM487.708 60.5438C484.408 58.9646 482.758 57.4803 482.758 56.0906C482.758 54.701 483.424 53.5956 484.757 52.7745C489.39 49.9952 496.721 48.6056 506.75 48.6056H509.511C512.938 48.6056 514.874 50.1847 515.318 53.3429C515.572 55.0484 515.699 66.5445 515.699 87.8311C515.699 109.055 516.143 121.245 517.032 124.404C517.92 127.499 520.047 129.899 523.411 131.605C526.775 133.247 528.457 134.921 528.457 136.626C528.457 139.026 520.586 140.227 504.845 140.227L501.989 140.321H490.374C485.741 140.321 483.424 139.184 483.424 136.91C483.424 135.015 484.82 133.184 487.613 131.415C490.469 129.646 492.437 127.688 493.516 125.541C494.722 123.204 495.325 117.74 495.325 109.149L495.42 106.117V103.18L495.515 98.7271V95.7899L495.61 92.8527C495.61 77.8826 495.103 69.1658 494.087 66.7024C493.135 64.1758 491.009 62.1229 487.708 60.5438Z" fill="black"/>
<path d="M573.927 53.4377H571.452C568.088 53.4377 564.819 55.3642 561.645 59.2173C558.472 63.0704 556.885 67.5551 556.885 72.6715L556.695 74.1874L556.599 76.5561V79.0196L556.695 79.7775C556.695 86.3467 558.123 91.6526 560.979 95.6952C563.835 99.7377 568.088 101.759 573.737 101.759H574.403C578.782 101.759 582.527 100.054 585.637 96.6426C588.747 93.2317 590.302 88.7154 590.302 83.0937V79.3986C590.112 77.8826 590.017 76.6509 590.017 75.7034C590.017 69.7027 588.335 64.4916 584.971 60.07C581.67 55.6485 577.989 53.4377 573.927 53.4377ZM565.454 137.668C561.011 137.668 557.234 139.216 554.124 142.311C551.014 145.406 549.459 149.291 549.459 153.965V154.723C549.459 160.092 551.585 164.324 555.838 167.419C560.09 170.514 565.898 172.062 573.26 172.062H575.736C584.622 172.062 591.762 170.041 597.157 165.998C602.552 161.955 605.25 157.218 605.25 151.786L605.154 151.028C605.154 147.427 603.663 144.522 600.68 142.311C597.697 140.163 594.174 139.09 590.112 139.09C587.573 138.774 585.732 138.616 584.59 138.616L581.353 138.332H579.734L574.022 137.953L570.119 137.668H565.454ZM624.005 52.3955C624.005 55.9959 621.72 58.3014 617.15 59.312C612.581 60.2595 610.296 62.1229 610.296 64.9022L610.581 66.8919L610.962 69.1658L611.438 71.6292C611.755 73.7137 611.914 76.6509 611.914 80.4408C611.914 84.2307 610.835 88.1469 608.677 92.1895C602.647 103.37 591.032 109.497 573.832 110.571C568.31 110.95 564.787 111.423 563.264 111.992C559.963 113.255 558.313 115.371 558.313 118.34C558.313 121.309 560.757 123.393 565.644 124.593C566.342 124.783 572.658 125.383 584.59 126.393C596.522 127.341 604.488 128.825 608.487 130.847C616.928 135.015 621.149 141.048 621.149 148.943C621.149 159.302 616.484 167.735 607.154 174.241C597.887 180.747 585.732 184 570.69 184C560.09 184 551.268 181.979 544.223 177.936C540.986 176.104 538.352 173.704 536.321 170.735C534.353 167.83 533.369 164.798 533.369 161.64C533.369 156.018 535.051 151.344 538.415 147.617C543.81 141.679 546.508 138.521 546.508 138.142C546.508 137.763 545.333 136.089 542.985 133.12C540.637 130.152 539.462 127.057 539.462 123.835C539.462 120.614 540.986 117.14 544.032 113.413C547.142 109.623 548.697 107.507 548.697 107.065C548.697 106.623 546.793 103.401 542.985 97.4006C539.177 91.3368 537.273 85.5887 537.273 80.1565C537.273 74.7243 538.447 69.8922 540.795 65.6601C547.46 53.5956 559.868 47.5633 578.021 47.5633H580.782L594.015 48.4161L598.871 48.6056C600.521 48.6687 602.203 48.7003 603.917 48.7003L614.009 48.0371C620.673 48.0371 624.005 49.4899 624.005 52.3955Z" fill="black"/>
<path d="M630.251 134.731C630.251 133.594 631.615 131.541 634.345 128.573C637.074 125.541 638.756 122.509 639.391 119.477C640.089 116.445 640.438 100.464 640.438 71.5345C640.438 42.6049 639.771 25.0766 638.438 18.9495C637.804 15.9808 636.471 13.8016 634.44 12.4119C630.758 9.82218 628.918 8.43254 628.918 8.24305C628.918 5.90594 630.156 4.26365 632.631 3.31617C637.328 1.48438 642.818 0.568486 649.102 0.568486H652.243C655.163 0.568486 657.226 1.73704 658.432 4.07415C659.701 6.41126 660.336 11.5592 660.336 19.518L660.241 23.0237C660.177 25.3608 660.145 27.6979 660.145 30.035L659.955 37.0463C659.955 39.3835 659.955 41.7206 659.955 44.0577C659.955 52.3323 661.415 56.4696 664.334 56.4696C664.652 56.4065 666.27 55.7432 669.19 54.4799C678.012 50.5637 685.407 48.6056 691.373 48.6056C702.544 48.6056 710.382 53.0587 714.889 61.965C717.872 68.0288 719.364 82.9358 719.364 106.686C719.364 115.845 719.681 121.561 720.316 123.835C721.014 126.046 722.823 128.352 725.742 130.752C728.725 133.152 730.217 134.668 730.217 135.3C730.217 137.258 728.916 138.584 726.314 139.279C723.775 139.974 717.237 140.321 706.701 140.321H703.369C696.451 140.321 692.991 138.932 692.991 136.152C692.991 135.521 693.817 133.942 695.467 131.415C697.117 128.825 698.196 125.92 698.704 122.698C699.212 119.477 699.465 111.044 699.465 97.4006C699.465 83.757 698.831 75.1665 697.561 71.6292C693.182 65.9444 688.326 62.4703 682.995 61.207C675.696 61.207 669.856 63.7968 665.477 68.9763C662.24 72.7662 660.621 81.4198 660.621 94.9372C660.621 108.391 660.939 116.982 661.573 120.709C662.208 124.372 663.573 127.72 665.667 130.752C667.825 133.721 668.904 135.552 668.904 136.247C668.904 138.521 662.462 139.658 649.578 139.658C636.693 139.658 630.251 138.016 630.251 134.731Z" fill="black"/>
<path d="M773.053 127.436L787.525 125.256C789.175 125.256 790 126.551 790 129.141C790 131.668 787.556 134.289 782.669 137.005C777.782 139.721 772.641 141.079 767.246 141.079H765.342C761.089 141.079 757.249 139.974 753.822 137.763C750.394 135.552 747.887 132.836 746.3 129.615C743.571 123.993 742.207 113.35 742.207 97.6849C742.207 81.9567 741.635 72.1346 740.493 68.2183C739.414 64.3021 737.986 61.6176 736.209 60.1648C732.908 57.5118 731.258 56.059 731.258 55.8064C731.258 54.1641 732.115 52.7745 733.828 51.6375C738.208 48.7319 740.588 47.0896 740.969 46.7106C741.413 46.2685 743.857 41.0889 748.3 31.172C750.521 26.2451 753.028 23.7817 755.821 23.7817C758.677 23.7817 760.581 24.7923 761.533 26.8136C761.787 27.3189 762.327 30.0666 763.152 35.0566C764.041 40.0467 765.278 43.2681 766.865 44.7209C768.452 46.1105 771.974 47.4686 777.433 48.7951C782.891 50.0584 785.621 51.8901 785.621 54.2904C785.621 56.6907 782.606 58.4909 776.576 59.691C770.546 60.8912 766.897 62.4387 765.627 64.3337C763.406 67.5551 762.295 76.6509 762.295 91.621C762.295 106.591 762.993 116.034 764.39 119.951C766.167 124.941 769.055 127.436 773.053 127.436Z" fill="black"/>
</svg>
